<svg width="200" height="150" viewBox="0 0 200 150" fill="none" xmlns="http://www.w3.org/2000/svg">
<path d="M197.91 20.492L189.977 12.7051L116.49 84.8363C107.304 93.8527 91.8554 93.8527 82.6696 84.8363L9.1832 13.1149L1.25 20.9018L55.9473 74.5904L1.25 128.279L9.1832 136.066L63.8805 82.3772L74.7364 93.033C81.417 99.5904 90.1853 103.279 99.3711 103.279C108.557 103.279 117.325 99.5904 124.006 93.033L134.862 82.3772L189.559 136.066L197.492 128.279L142.795 74.5904L197.91 20.492Z" fill="#2C305D"/>
<path d="M182.463 150H17.5366C7.93321 150 0 142.213 0 132.787V17.2131C0 7.78687 7.93321 0 17.5366 0H182.463C192.067 0 200 7.78687 200 17.2131V132.787C200 142.213 192.067 150 182.463 150ZM17.119 11.0656C13.7787 11.0656 11.2735 13.5246 11.2735 16.8032V132.377C11.2735 135.656 13.7787 138.115 17.119 138.115H182.046C185.386 138.115 187.891 135.656 187.891 132.377V16.8032C187.891 13.5246 185.386 11.0656 182.046 11.0656H17.119Z" fill="#2C305D"/>
</svg>
