<svg width="15" height="15" viewBox="0 0 15 15" fill="none" xmlns="http://www.w3.org/2000/svg">
<path d="M5.18698 5.9931C5.2201 5.9931 5.2526 5.98935 5.28573 5.9881C5.25917 5.80154 5.24042 5.61279 5.24042 5.41873C5.24042 3.82561 6.17791 2.45499 7.52916 1.81781C7.04635 1.02843 6.17947 0.5 5.18698 0.5C3.67011 0.5 2.44043 1.72968 2.44043 3.24655C2.44043 4.76342 3.6698 5.9931 5.18698 5.9931Z" fill="#2C305D"/>
<path d="M9.21059 8.47001C10.8956 8.47001 12.2615 7.10407 12.2615 5.41909C12.2615 3.73411 10.8956 2.36816 9.21059 2.36816C7.52561 2.36816 6.15967 3.73411 6.15967 5.41909C6.15967 7.10407 7.52561 8.47001 9.21059 8.47001Z" fill="#2C305D"/>
<path d="M11.8726 8.42676C11.1632 9.05519 10.2329 9.43957 9.21071 9.43957C8.19322 9.43957 7.26697 9.05863 6.55854 8.43582C4.71074 9.44425 3.44824 11.4671 3.44824 13.7999C3.44824 14.1674 3.48105 14.5258 3.54105 14.8749H14.9066C14.9669 14.5261 14.9997 14.1674 14.9997 13.8002C14.9997 11.4602 13.7301 9.43207 11.8726 8.42676Z" fill="#2C305D"/>
<path d="M5.9881 7.75194C5.79185 7.47507 5.62779 7.17413 5.50622 6.85164C5.40122 6.8607 5.29497 6.86664 5.18748 6.86664C4.27123 6.86664 3.43748 6.52383 2.79967 5.96289C1.13656 6.8707 0 8.69194 0 10.7922C0 11.1229 0.0296874 11.446 0.0834371 11.7604H2.9153C3.32373 10.0266 4.45935 8.57475 5.9881 7.75194Z" fill="#2C305D"/>
</svg>
